<svg width="32" height="32" viewBox="0 0 32 32" fill="none" xmlns="http://www.w3.org/2000/svg">
<rect width="32" height="32" fill="#F7F3E3"/>
<path d="M8.416 22.132C7.608 22.132 6.952 21.976 6.448 21.664C5.944 21.344 5.604 20.888 5.428 20.296C5.252 19.696 5.236 18.984 5.38 18.16L6.58 11.332C6.66 10.9 6.88 10.568 7.24 10.336C7.6 10.104 7.952 9.988 8.296 9.988C8.712 9.988 9.056 10.132 9.328 10.42C9.608 10.7 9.704 11.1 9.616 11.62L8.428 18.148C8.348 18.604 8.384 18.94 8.536 19.156C8.688 19.364 8.916 19.468 9.22 19.468C9.428 19.468 9.684 19.328 9.988 19.048C10.292 18.76 10.628 18.36 10.996 17.848C11.372 17.336 11.768 16.74 12.184 16.06C12.608 15.38 13.036 14.644 13.468 13.852C13.9 13.06 14.324 12.24 14.74 11.392C14.98 10.92 15.224 10.568 15.472 10.336C15.728 10.104 16.072 9.988 16.504 9.988C16.952 9.988 17.32 10.132 17.608 10.42C17.896 10.7 17.992 11.1 17.896 11.62L16.72 18.148C16.664 18.46 16.68 18.712 16.768 18.904C16.856 19.096 16.992 19.24 17.176 19.336C17.368 19.424 17.584 19.468 17.824 19.468C18.048 19.468 18.304 19.324 18.592 19.036C18.88 18.748 19.196 18.348 19.54 17.836C19.884 17.324 20.244 16.728 20.62 16.048C21.004 15.368 21.396 14.632 21.796 13.84C22.204 13.048 22.616 12.232 23.032 11.392C23.28 10.912 23.532 10.56 23.788 10.336C24.044 10.104 24.384 9.988 24.808 9.988C24.848 9.988 24.936 10 25.072 10.024C25.216 10.048 25.48 10.096 25.864 10.168C26.248 10.24 26.828 10.356 27.604 10.516C28.068 10.604 28.412 10.78 28.636 11.044C28.868 11.308 28.984 11.612 28.984 11.956C28.984 12.548 28.76 12.972 28.312 13.228C27.872 13.484 27.344 13.552 26.728 13.432L25.252 13.132L25.144 13.372C24.6 14.604 23.996 15.752 23.332 16.816C22.676 17.88 21.988 18.812 21.268 19.612C20.556 20.404 19.836 21.024 19.108 21.472C18.388 21.912 17.692 22.132 17.02 22.132C16.172 22.132 15.476 21.976 14.932 21.664C14.388 21.344 14.008 20.888 13.792 20.296C13.584 19.696 13.54 18.984 13.66 18.16L13.864 16.9C13.36 17.7 12.872 18.424 12.4 19.072C11.936 19.712 11.484 20.26 11.044 20.716C10.604 21.172 10.164 21.524 9.724 21.772C9.292 22.012 8.856 22.132 8.416 22.132Z" fill="#474B24"/>
</svg>
